<svg width="25" height="24" viewBox="0 0 25 24" fill="none" xmlns="http://www.w3.org/2000/svg">
<g clip-path="url(#clip0_78_1917)">
<path d="M2.6665 9.79297C2.6665 14.0898 6.16259 17.5859 10.4595 17.5859C12.1587 17.5859 13.7114 17.0391 14.9907 16.1211L19.7954 20.9355C20.02 21.1602 20.313 21.2676 20.6255 21.2676C21.2895 21.2676 21.7485 20.7695 21.7485 20.1152C21.7485 19.8027 21.6313 19.5195 21.4263 19.3145L16.6509 14.5098C17.6567 13.2012 18.2524 11.5703 18.2524 9.79297C18.2524 5.49609 14.7563 2 10.4595 2C6.16259 2 2.6665 5.49609 2.6665 9.79297ZM4.33642 9.79297C4.33642 6.41406 7.08056 3.66992 10.4595 3.66992C13.8384 3.66992 16.5825 6.41406 16.5825 9.79297C16.5825 13.1719 13.8384 15.916 10.4595 15.916C7.08056 15.916 4.33642 13.1719 4.33642 9.79297ZM10.4692 13.8945C10.6255 13.8945 10.7524 13.7676 10.7915 13.6113C11.2798 10.9648 11.5239 10.4766 14.2681 10.1055C14.4438 10.0859 14.561 9.95898 14.561 9.79297C14.561 9.62695 14.4438 9.5 14.2681 9.46094C11.5337 9.08984 11.1821 8.58203 10.7915 5.98438C10.7622 5.80859 10.6255 5.69141 10.4692 5.69141C10.3032 5.69141 10.1763 5.79883 10.1372 5.97461C9.63916 8.63086 9.40478 9.08984 6.66064 9.46094C6.48486 9.5 6.36767 9.62695 6.36767 9.79297C6.36767 9.95898 6.48486 10.0762 6.66064 10.1055C9.40478 10.3789 9.75634 10.9648 10.1372 13.6016C10.1665 13.7676 10.2935 13.8945 10.4692 13.8945Z" fill="white"/>
</g>
<defs>
<clipPath id="clip0_78_1917">
<rect width="19.082" height="19.2676" fill="white" transform="translate(2.6665 2)"/>
</clipPath>
</defs>
</svg>
