<svg width="25" height="29" viewBox="0 0 25 29" fill="none" xmlns="http://www.w3.org/2000/svg">
<g clip-path="url(#clip0_78_1180)">
<path d="M15.9915 7.46289C16.1478 7.46289 16.2747 7.35547 16.2845 7.17969C16.5677 4.88477 16.6751 4.82617 19.0091 4.43555C19.2044 4.41602 19.3118 4.31836 19.3118 4.15234C19.3118 3.99609 19.2044 3.89844 19.0481 3.86914C16.6946 3.41992 16.5677 3.42969 16.2845 1.13477C16.2747 0.958984 16.1478 0.851562 15.9915 0.851562C15.845 0.851562 15.7278 0.958984 15.7181 1.125C15.4056 3.45898 15.3372 3.52734 12.9446 3.86914C12.7884 3.88867 12.681 3.99609 12.681 4.15234C12.681 4.30859 12.7884 4.41602 12.9446 4.43555C15.3372 4.9043 15.3958 4.89453 15.7181 7.19922C15.7278 7.35547 15.845 7.46289 15.9915 7.46289ZM9.45833 4.82617C9.56575 4.82617 9.65364 4.76758 9.68294 4.64062C9.94661 3.17578 9.94661 3.16602 11.4212 2.89258C11.5481 2.86328 11.6263 2.78516 11.6263 2.66797C11.6263 2.54102 11.5481 2.46289 11.4212 2.43359C9.94661 2.14062 9.98567 2.13086 9.68294 0.695312C9.65364 0.568359 9.57552 0.5 9.45833 0.5C9.34114 0.5 9.25325 0.578125 9.23372 0.695312C8.92122 2.13086 8.97005 2.14062 7.48567 2.43359C7.35872 2.46289 7.2806 2.55078 7.2806 2.66797C7.2806 2.77539 7.35872 2.86328 7.48567 2.89258C8.97005 3.18555 8.95052 3.17578 9.23372 4.64062C9.25325 4.75781 9.34114 4.82617 9.45833 4.82617ZM4.13606 26.5547C4.28255 26.5547 4.36067 26.4668 4.38021 26.3301C4.73177 24.416 4.722 24.377 6.72395 23.9961C6.87044 23.957 6.94856 23.8887 6.94856 23.7422C6.94856 23.5957 6.87044 23.5273 6.72395 23.498C4.73177 23.0977 4.7806 23.0586 4.38021 21.1543C4.36067 21.0176 4.28255 20.9297 4.13606 20.9297C3.99935 20.9297 3.93099 21.0176 3.89192 21.1543C3.49153 23.0586 3.56966 23.0977 1.55794 23.498C1.42122 23.5273 1.33333 23.5957 1.33333 23.7422C1.33333 23.8887 1.42122 23.957 1.55794 23.9961C3.56966 24.3867 3.5306 24.416 3.89192 26.3301C3.93099 26.4668 3.99935 26.5547 4.13606 26.5547ZM19.1556 23.7617C21.5872 21.3398 21.9778 18.3125 20.3079 14.8066L18.1106 10.168C17.9544 9.8457 17.7688 9.58203 17.5638 9.37695C16.8313 8.64453 15.7669 8.68359 15.0638 9.39648C14.5853 9.86523 14.4388 10.5781 14.7513 11.3594L15.4056 12.9121C15.4153 12.9512 15.4251 12.9902 15.3958 13.0195C15.3567 13.0586 15.3177 13.0488 15.2786 13.0098L9.74153 7.47266C8.93099 6.66211 7.92513 6.66211 7.15364 7.43359C6.87044 7.7168 6.71419 8.06836 6.70442 8.43945C5.90364 7.82422 5.01497 7.84375 4.32161 8.53711C3.65755 9.20117 3.63802 10.1191 4.21419 10.9004C3.86263 10.9004 3.5306 11.0566 3.27669 11.3105C2.55403 12.0234 2.58333 13 3.34505 13.7715L4.11653 14.5332C3.73567 14.5234 3.35481 14.6992 3.05208 15.002C2.33919 15.7148 2.37825 16.7402 3.14974 17.5117L9.08724 23.4492C12.3196 26.6816 16.2356 26.6816 19.1556 23.7617ZM18.1692 22.8438C15.7181 25.2852 12.6614 25.207 9.88802 22.4238L4.1556 16.7012C3.86263 16.4082 3.8431 16.0176 4.13606 15.7246C4.41927 15.4414 4.82942 15.4414 5.12239 15.7344L8.64778 19.2695C8.91145 19.5234 9.28255 19.4844 9.50716 19.2598C9.74153 19.0254 9.7806 18.6445 9.52669 18.3906L4.25325 13.1074C3.96028 12.8145 3.94075 12.4238 4.22395 12.1406C4.50716 11.8574 4.91731 11.8574 5.22005 12.1504L10.1419 17.0723C10.3958 17.3262 10.7767 17.2969 11.0013 17.0625C11.2357 16.8281 11.2747 16.4473 11.0208 16.1934L5.23958 10.4121C4.94661 10.1191 4.92708 9.70898 5.22005 9.42578C5.49349 9.14258 5.90364 9.16211 6.20638 9.45508L11.9876 15.2363C12.222 15.4707 12.6028 15.4609 12.8372 15.2266C13.0813 14.9824 13.1009 14.6016 12.8567 14.3574L7.93489 9.42578C7.64192 9.13281 7.63216 8.73242 7.91536 8.44922C8.20833 8.15625 8.59895 8.16602 8.90169 8.46875L15.6985 15.2656C16.0403 15.6074 16.4407 15.6074 16.7337 15.3145C16.9778 15.0703 17.0853 14.748 16.8899 14.25L15.6692 11.0371C15.5032 10.6074 15.6497 10.2461 15.9915 10.0898C16.3528 9.92383 16.6751 10.0898 16.8997 10.5586L19.1653 15.3535C20.679 18.5566 20.0931 20.9102 18.1692 22.8438ZM9.65364 6.55469C9.36067 6.82812 9.21419 7.18945 9.19466 7.56055L10.4251 8.54688C10.1322 8.26367 10.1224 7.85352 10.4154 7.56055C10.6986 7.27734 11.0989 7.29688 11.3919 7.58984L14.7122 10.9102L15.5032 9.85547L12.2317 6.59375C11.4212 5.7832 10.4251 5.7832 9.65364 6.55469ZM21.6458 22.8926C24.0774 20.4609 24.4681 17.4336 22.8079 13.9277L20.6009 9.2793C20.2005 8.41992 19.5267 7.9707 18.7259 7.9707C18.0911 7.9707 17.0071 8.41016 17.0071 9.68945C17.0071 9.79688 17.0071 9.9043 17.0267 10.0215L18.179 10.3438C18.1204 10.2168 18.0813 10.0898 18.0813 9.92383C18.0813 9.61133 18.345 9.29883 18.7649 9.29883C19.0286 9.29883 19.3021 9.48438 19.4485 9.79688L21.6653 14.4746C23.179 17.668 22.6028 20.041 20.6595 21.9551C19.8782 22.7363 19.0286 23.2637 18.1497 23.5176L16.7239 25.0215C18.4817 25.0703 20.1907 24.3477 21.6458 22.8926Z" fill="white"/>
</g>
<defs>
<clipPath id="clip0_78_1180">
<rect width="22.4832" height="27.7637" fill="white" transform="translate(1.33333 0.5)"/>
</clipPath>
</defs>
</svg>
