<svg width="28" height="28" viewBox="0 0 28 28" fill="none" xmlns="http://www.w3.org/2000/svg">
<g clip-path="url(#clip0_24_29375)">
<path d="M8.80486 8.20313H24.368C24.8807 8.20313 25.2908 7.80436 25.2908 7.29167C25.2908 6.76758 24.8807 6.36882 24.368 6.36882H8.80486C8.28077 6.36882 7.882 6.76758 7.882 7.29167C7.882 7.80436 8.28077 8.20313 8.80486 8.20313ZM8.80486 15.096H24.368C24.8807 15.096 25.2908 14.6859 25.2908 14.1732C25.2908 13.6605 24.8807 13.2617 24.368 13.2617H8.80486C8.28077 13.2617 7.882 13.6605 7.882 14.1732C7.882 14.6859 8.28077 15.096 8.80486 15.096ZM8.80486 21.9775H24.368C24.8807 21.9775 25.2908 21.5788 25.2908 21.066C25.2908 20.542 24.8807 20.1432 24.368 20.1432H8.80486C8.28077 20.1432 7.882 20.542 7.882 21.066C7.882 21.5788 8.28077 21.9775 8.80486 21.9775ZM3.76904 8.71582C4.56657 8.71582 5.20459 8.0778 5.20459 7.29167C5.20459 6.49414 4.56657 5.85612 3.76904 5.85612C2.97152 5.85612 2.3335 6.49414 2.3335 7.29167C2.3335 8.0778 2.97152 8.71582 3.76904 8.71582ZM3.76904 15.6087C4.56657 15.6087 5.20459 14.9707 5.20459 14.1732C5.20459 13.3756 4.56657 12.7376 3.76904 12.7376C2.97152 12.7376 2.3335 13.3756 2.3335 14.1732C2.3335 14.9707 2.97152 15.6087 3.76904 15.6087ZM3.76904 22.5016C4.56657 22.5016 5.20459 21.8522 5.20459 21.066C5.20459 20.2685 4.56657 19.6306 3.76904 19.6306C2.97152 19.6306 2.3335 20.2685 2.3335 21.066C2.3335 21.8522 2.97152 22.5016 3.76904 22.5016Z" fill="white"/>
</g>
<defs>
<clipPath id="clip0_24_29375">
<rect width="22.9573" height="16.6683" fill="white" transform="translate(2.3335 5.83333)"/>
</clipPath>
</defs>
</svg>
